<svg width="35" height="35" viewBox="0 0 35 35" fill="none" xmlns="http://www.w3.org/2000/svg">
<path d="M5.02415 11.454V27.7276C5.02415 28.7182 5.41766 29.6682 6.11809 30.3686C6.81852 31.0691 7.76852 31.4626 8.75908 31.4626H26.9002C27.8907 31.4626 28.8407 31.0691 29.5412 30.3686C30.2416 29.6682 30.6351 28.7182 30.6351 27.7276V11.454C30.6351 11.3833 30.607 11.3154 30.5569 11.2654C30.5069 11.2154 30.4391 11.1873 30.3683 11.1873H5.29094C5.22018 11.1873 5.15232 11.2154 5.10229 11.2654C5.05226 11.3154 5.02415 11.3833 5.02415 11.454ZM22.8318 21.567L18.5839 25.8142C18.3838 26.0141 18.1125 26.1265 17.8296 26.1265C17.5467 26.1265 17.2754 26.0141 17.0753 25.8142L12.8275 21.567C12.4213 21.1608 12.384 20.4999 12.7708 20.0744C12.8679 19.9674 12.9857 19.8813 13.1171 19.8212C13.2485 19.7611 13.3907 19.7283 13.5351 19.7248C13.6796 19.7213 13.8232 19.7472 13.9573 19.8009C14.0915 19.8545 14.2133 19.9349 14.3155 20.037L16.7625 22.4834V15.4858C16.7625 14.9115 17.204 14.4186 17.7783 14.39C17.9225 14.383 18.0667 14.4054 18.2021 14.4558C18.3375 14.5063 18.4612 14.5836 18.5658 14.6833C18.6704 14.7829 18.7536 14.9028 18.8105 15.0356C18.8674 15.1683 18.8967 15.3113 18.8967 15.4557V22.4834L21.3438 20.037C21.4459 19.9349 21.5678 19.8545 21.7019 19.8009C21.8361 19.7472 21.9797 19.7213 22.1241 19.7248C22.2685 19.7283 22.4108 19.7611 22.5421 19.8212C22.6735 19.8813 22.7913 19.9674 22.8884 20.0744C23.2753 20.4992 23.2379 21.1608 22.8318 21.567Z" fill="white"/>
<path d="M30.6351 3.71741H5.02414C3.84543 3.71741 2.88989 4.67294 2.88989 5.85165V6.91877C2.88989 8.09748 3.84543 9.05302 5.02414 9.05302H30.6351C31.8138 9.05302 32.7693 8.09748 32.7693 6.91877V5.85165C32.7693 4.67294 31.8138 3.71741 30.6351 3.71741Z" fill="white"/>
</svg>
