<svg width="35" height="35" viewBox="0 0 35 35" fill="none" xmlns="http://www.w3.org/2000/svg">
<path d="M4.08661 29.8038C3.87654 29.7315 3.69428 29.5953 3.56528 29.4144C3.43627 29.2335 3.36695 29.0169 3.36697 28.7947C3.36697 23.9193 4.34606 20.0203 6.27822 17.2051C8.61255 13.8036 12.2948 11.9722 17.2396 11.7448V6.38514C17.2396 6.17619 17.3009 5.97184 17.416 5.79744C17.5311 5.62304 17.6949 5.48627 17.887 5.4041C18.0791 5.32192 18.2912 5.29796 18.4968 5.33518C18.7024 5.3724 18.8925 5.46917 19.0437 5.61348L30.782 16.8183C30.8863 16.9179 30.9693 17.0377 31.0261 17.1703C31.0828 17.3029 31.1121 17.4457 31.1121 17.5899C31.1121 17.7342 31.0828 17.8769 31.0261 18.0096C30.9693 18.1422 30.8863 18.262 30.782 18.3616L19.0437 29.5664C18.8925 29.7107 18.7024 29.8074 18.4968 29.8447C18.2912 29.8819 18.0791 29.8579 17.887 29.7758C17.6949 29.6936 17.5311 29.5568 17.416 29.3824C17.3009 29.208 17.2396 29.0037 17.2396 28.7947V23.4744C14.2383 23.5651 11.9706 24.0513 10.1652 24.9844C8.21438 25.9928 6.79977 27.4995 5.27512 29.453C5.13835 29.6281 4.95031 29.7562 4.73724 29.8193C4.52418 29.8825 4.29672 29.8775 4.08661 29.8051V29.8038Z" fill="white"/>
</svg>
