<svg width="26" height="27" viewBox="0 0 26 27" fill="none" xmlns="http://www.w3.org/2000/svg">
<path d="M19.7947 24.7642C18.8183 24.7642 17.4467 24.4111 15.3928 23.2636C12.8952 21.863 10.9634 20.5699 8.47934 18.0924C6.08432 15.6989 4.91882 14.1492 3.28763 11.1809C1.44484 7.82951 1.75897 6.07276 2.11012 5.32194C2.5283 4.42455 3.14557 3.88782 3.94341 3.3551C4.39657 3.05819 4.87614 2.80367 5.37602 2.59477C5.42604 2.57326 5.47256 2.55275 5.51408 2.53425C5.76168 2.4227 6.13684 2.25413 6.61205 2.4342C6.92918 2.55325 7.2123 2.79686 7.65549 3.23454C8.56438 4.13093 9.80641 6.12728 10.2646 7.1077C10.5722 7.76848 10.7758 8.20467 10.7763 8.69387C10.7763 9.26662 10.4882 9.70831 10.1386 10.185C10.073 10.2745 10.008 10.3601 9.94497 10.4431C9.56431 10.9433 9.48077 11.0879 9.53579 11.346C9.64734 11.8647 10.4792 13.4089 11.8463 14.773C13.2134 16.1371 14.713 16.9164 15.2337 17.0274C15.5028 17.085 15.6504 16.9979 16.1666 16.6038C16.2407 16.5472 16.3167 16.4887 16.3962 16.4302C16.9294 16.0335 17.3506 15.7529 17.9099 15.7529H17.9129C18.3996 15.7529 18.8163 15.964 19.5065 16.3121C20.4069 16.7663 22.4633 17.9923 23.3652 18.9022C23.8039 19.3444 24.0485 19.6265 24.168 19.9432C24.3481 20.4199 24.1785 20.7935 24.068 21.0436C24.0495 21.0852 24.029 21.1307 24.0075 21.1812C23.7969 21.6802 23.5409 22.1587 23.2426 22.6108C22.7109 23.4062 22.1722 24.0219 21.2728 24.4406C20.811 24.659 20.3055 24.7697 19.7947 24.7642Z" fill="#768699"/>
</svg>
