<svg width="26" height="26" viewBox="0 0 26 26" fill="none" xmlns="http://www.w3.org/2000/svg">
<path d="M9.04012 21.6309C9.48213 21.6309 9.84046 21.2726 9.84046 20.8306C9.84046 20.3886 9.48213 20.0302 9.04012 20.0302C8.5981 20.0302 8.23978 20.3886 8.23978 20.8306C8.23978 21.2726 8.5981 21.6309 9.04012 21.6309Z" stroke="#768699" stroke-width="1.60068" stroke-linecap="round" stroke-linejoin="round"/>
<path d="M20.2449 21.6309C20.6869 21.6309 21.0452 21.2726 21.0452 20.8306C21.0452 20.3886 20.6869 20.0302 20.2449 20.0302C19.8029 20.0302 19.4445 20.3886 19.4445 20.8306C19.4445 21.2726 19.8029 21.6309 20.2449 21.6309Z" stroke="#768699" stroke-width="1.60068" stroke-linecap="round" stroke-linejoin="round"/>
<path d="M2.63736 4.0234H5.83873L8.23975 17.6292H21.0452" stroke="#768699" stroke-width="1.60068" stroke-linecap="round" stroke-linejoin="round"/>
<path d="M8.23975 14.4278H20.7171C20.8096 14.4279 20.8993 14.3959 20.9709 14.3373C21.0425 14.2786 21.0916 14.197 21.1097 14.1062L22.5504 6.90314C22.562 6.84505 22.5606 6.78511 22.5462 6.72764C22.5319 6.67018 22.5049 6.61661 22.4674 6.57081C22.4298 6.52501 22.3825 6.48813 22.329 6.46281C22.2754 6.4375 22.2169 6.42439 22.1577 6.42443H6.63907" fill="#768699"/>
<path d="M8.23975 14.4278H20.7171C20.8096 14.4279 20.8993 14.3959 20.9709 14.3373C21.0425 14.2786 21.0916 14.197 21.1097 14.1062L22.5504 6.90314C22.562 6.84505 22.5606 6.78511 22.5462 6.72764C22.5319 6.67018 22.5049 6.61661 22.4674 6.57081C22.4298 6.52501 22.3825 6.48813 22.329 6.46281C22.2754 6.4375 22.2169 6.42439 22.1577 6.42443H6.63907" stroke="#768699" stroke-width="1.60068" stroke-linecap="round" stroke-linejoin="round"/>
</svg>
