<svg width="26" height="27" viewBox="0 0 26 27" fill="none" xmlns="http://www.w3.org/2000/svg">
<path d="M9.04012 22.426C9.48213 22.426 9.84046 22.0676 9.84046 21.6256C9.84046 21.1836 9.48213 20.8253 9.04012 20.8253C8.5981 20.8253 8.23978 21.1836 8.23978 21.6256C8.23978 22.0676 8.5981 22.426 9.04012 22.426Z" stroke="#768699" stroke-width="1.60068" stroke-linecap="round" stroke-linejoin="round"/>
<path d="M20.2449 22.426C20.6869 22.426 21.0452 22.0676 21.0452 21.6256C21.0452 21.1836 20.6869 20.8253 20.2449 20.8253C19.8029 20.8253 19.4445 21.1836 19.4445 21.6256C19.4445 22.0676 19.8029 22.426 20.2449 22.426Z" stroke="#768699" stroke-width="1.60068" stroke-linecap="round" stroke-linejoin="round"/>
<path d="M2.63736 4.81842H5.83873L8.23975 18.4242H21.0452" stroke="#768699" stroke-width="1.60068" stroke-linecap="round" stroke-linejoin="round"/>
<path d="M8.23975 15.2229H20.7171C20.8096 15.2229 20.8993 15.1909 20.9709 15.1323C21.0425 15.0736 21.0916 14.992 21.1097 14.9012L22.5504 7.69816C22.562 7.64007 22.5606 7.58014 22.5462 7.52267C22.5319 7.4652 22.5049 7.41163 22.4674 7.36583C22.4298 7.32003 22.3825 7.28315 22.329 7.25783C22.2754 7.23252 22.2169 7.21941 22.1577 7.21945H6.63907" fill="#768699"/>
<path d="M8.23975 15.2229H20.7171C20.8096 15.2229 20.8993 15.1909 20.9709 15.1323C21.0425 15.0736 21.0916 14.992 21.1097 14.9012L22.5504 7.69816C22.562 7.64007 22.5606 7.58014 22.5462 7.52267C22.5319 7.4652 22.5049 7.41163 22.4674 7.36583C22.4298 7.32003 22.3825 7.28315 22.329 7.25783C22.2754 7.23252 22.2169 7.21941 22.1577 7.21945H6.63907" stroke="#768699" stroke-width="1.60068" stroke-linecap="round" stroke-linejoin="round"/>
</svg>
