<svg width="35" height="35" viewBox="0 0 35 35" fill="none" xmlns="http://www.w3.org/2000/svg">
<g clip-path="url(#clip0_56_573)">
<path d="M32.1024 13.1547C31.0512 12.4877 29.6873 12.0349 28.1947 11.8515C27.7512 9.24369 26.5793 7.01474 24.7752 5.3647C22.8617 3.61395 20.3313 2.65021 17.6495 2.65021C15.2918 2.65021 13.1142 3.38919 11.3555 4.78445C10.0208 5.84751 8.98087 7.23489 8.33487 8.81417C6.28933 9.10229 4.53325 9.78859 3.21869 10.815C1.48928 12.1763 0.575562 14.0924 0.575562 16.3627C0.575562 20.858 4.30515 23.9927 9.6461 23.9927H16.5824V14.3886H18.7166V23.9927H26.9868C31.8316 23.9927 34.7235 21.709 34.7235 17.8834C34.7235 15.8792 33.8171 14.2438 32.1024 13.1547ZM16.5824 28.4892L13.3797 25.2599L11.8717 26.7938L17.6495 32.5296L23.4273 26.7938L21.9193 25.2599L18.7166 28.4892V23.9927H16.5824V28.4892Z" fill="white"/>
</g>
<defs>
<clipPath id="clip0_56_573">
<rect width="34.1479" height="34.1479" fill="white" transform="translate(0.575592 0.516052)"/>
</clipPath>
</defs>
</svg>
