<svg width="35" height="35" viewBox="0 0 35 35" fill="none" xmlns="http://www.w3.org/2000/svg">
<path d="M31.4814 4.06739C31.3839 3.96031 31.2657 3.87409 31.134 3.81396C31.0023 3.75383 30.8598 3.72103 30.715 3.71754C30.5703 3.71404 30.4263 3.73994 30.2918 3.79365C30.1574 3.84736 30.0352 3.92778 29.9327 4.03004L29.1077 4.85106C29.0077 4.95111 28.9515 5.08677 28.9515 5.22822C28.9515 5.36967 29.0077 5.50533 29.1077 5.60538L29.864 6.36037C29.9136 6.41018 29.9725 6.44971 30.0374 6.47667C30.1023 6.50364 30.1719 6.51753 30.2422 6.51753C30.3124 6.51753 30.382 6.50364 30.4469 6.47667C30.5118 6.44971 30.5707 6.41018 30.6203 6.36037L31.4247 5.56003C31.8315 5.15386 31.8695 4.49224 31.4814 4.06739ZM27.4396 6.51844L15.3998 18.5369C15.3268 18.6096 15.2738 18.6999 15.2458 18.799L14.6889 20.4577C14.6755 20.5027 14.6746 20.5505 14.6861 20.596C14.6977 20.6415 14.7213 20.683 14.7545 20.7162C14.7877 20.7494 14.8292 20.773 14.8747 20.7846C14.9202 20.7961 14.968 20.7952 15.013 20.7819L16.6704 20.225C16.7695 20.1969 16.8598 20.1439 16.9325 20.0709L28.9509 8.02975C29.0621 7.91737 29.1245 7.76566 29.1245 7.60757C29.1245 7.44948 29.0621 7.29777 28.9509 7.18539L28.2873 6.51844C28.1748 6.40623 28.0224 6.34323 27.8635 6.34323C27.7046 6.34323 27.5521 6.40623 27.4396 6.51844Z" fill="white"/>
<path d="M26.5726 13.4321L18.4432 21.5776C18.129 21.8926 17.7428 22.1263 17.318 22.2585L15.5906 22.8368C15.1807 22.9526 14.7472 22.9569 14.335 22.8494C13.9228 22.7419 13.5468 22.5265 13.2455 22.2253C12.9443 21.9241 12.7289 21.548 12.6214 21.1358C12.5139 20.7236 12.5182 20.2901 12.634 19.8802L13.2123 18.1528C13.3441 17.7281 13.5774 17.342 13.8919 17.0276L22.0374 8.89683C22.112 8.82225 22.1629 8.72721 22.1835 8.62371C22.2042 8.52022 22.1937 8.41293 22.1533 8.31541C22.113 8.21789 22.0447 8.13452 21.9569 8.07584C21.8692 8.01717 21.7661 7.98583 21.6605 7.98578H7.74193C6.75137 7.98578 5.80137 8.37928 5.10094 9.07971C4.4005 9.78015 4.007 10.7301 4.007 11.7207V27.7275C4.007 28.7181 4.4005 29.6681 5.10094 30.3685C5.80137 31.069 6.75137 31.4625 7.74193 31.4625H23.7488C24.7393 31.4625 25.6893 31.069 26.3898 30.3685C27.0902 29.6681 27.4837 28.7181 27.4837 27.7275V13.8089C27.4836 13.7034 27.4523 13.6003 27.3936 13.5125C27.3349 13.4248 27.2516 13.3565 27.1541 13.3161C27.0565 13.2758 26.9492 13.2653 26.8458 13.2859C26.7423 13.3066 26.6472 13.3574 26.5726 13.4321Z" fill="white"/>
</svg>
