<svg width="59" height="59" viewBox="0 0 59 59" fill="none" xmlns="http://www.w3.org/2000/svg">
<path d="M20.698 37.6451C20.1511 36.9159 19.6042 35.6398 18.5104 33.9991C17.9635 33.0876 16.3228 31.2646 15.7759 30.5354C15.4113 29.8062 15.4113 29.4416 15.5936 28.7124C15.7759 27.6186 16.8697 26.7071 18.1458 26.7071C19.0573 26.7071 19.9688 27.4363 20.698 27.9832C21.0626 28.3478 21.6095 29.077 21.9741 29.4416C22.3387 29.8062 22.3387 29.9885 22.7033 30.3531C23.0679 30.9 23.2502 31.2646 23.0679 30.5354C22.8856 29.6239 22.7033 28.1655 22.3387 26.7071C22.1564 25.6133 21.9741 25.431 21.7918 24.7018C21.6095 23.7903 21.4272 23.2434 21.2449 22.3319C21.0626 21.785 20.8803 20.3266 20.698 19.5974C20.5157 18.6859 20.5157 17.0452 21.2449 16.316C21.7918 15.7691 22.8856 15.5868 23.6148 15.9514C24.5263 16.4983 25.0732 17.7744 25.2555 18.3213C25.6201 19.2328 25.9847 20.5089 26.167 21.9673C26.5316 23.7903 27.0785 26.5248 27.0785 27.0717C27.0785 26.3425 26.8962 25.0664 27.0785 24.3372C27.2608 23.7903 27.6254 23.0611 28.3546 22.8788C28.9015 22.6965 29.4484 22.6965 29.9953 22.6965C30.5422 22.8788 31.0891 23.2434 31.4537 23.608C32.1829 24.7018 32.1829 27.0717 32.1829 26.8894C32.3652 26.1602 32.3652 24.7018 32.7298 23.9726C32.9121 23.608 33.6413 23.2434 34.0059 23.0611C34.5528 22.8788 35.282 22.8788 35.8289 23.0611C36.1935 23.0611 36.9227 23.608 37.105 23.9726C37.4696 24.5195 37.6519 26.3425 37.8342 27.0717C37.8342 27.254 38.0165 26.3425 38.3811 25.7956C39.1103 24.7018 41.6625 24.3372 41.8448 26.8894C41.8448 28.1655 41.8448 27.9832 41.8448 28.8947C41.8448 29.8062 41.8448 30.3531 41.8448 31.0823C41.8448 31.8115 41.6625 33.4522 41.4802 34.1814C41.2979 34.7283 40.751 36.0044 40.2041 36.7336C40.2041 36.7336 38.1988 38.9212 38.0165 40.015C37.8342 41.1088 37.8342 41.1088 37.8342 41.838C37.8342 42.5672 38.0165 43.4787 38.0165 43.4787C38.0165 43.4787 36.5581 43.661 35.8289 43.4787C35.0997 43.2964 34.1882 42.0203 34.0059 41.4734C33.6413 40.9265 33.0944 40.9265 32.7298 41.4734C32.3652 42.2026 31.4537 43.4787 30.7245 43.4787C29.4484 43.661 26.8962 43.4787 25.0732 43.4787C25.0732 43.4787 25.4378 41.6557 24.7086 40.9265C24.1617 40.3796 23.2502 39.4681 22.7033 38.9212L20.698 37.6451Z" fill="white"/>
<path d="M20.698 37.6451C20.1511 36.9159 19.6042 35.6398 18.5104 33.9991C17.9635 33.0876 16.3228 31.2646 15.7759 30.5354C15.4113 29.8062 15.4113 29.4416 15.5936 28.7124C15.7759 27.6186 16.8697 26.7071 18.1458 26.7071C19.0573 26.7071 19.9688 27.4363 20.698 27.9832C21.0626 28.3478 21.6095 29.077 21.9741 29.4416C22.3387 29.8062 22.3387 29.9885 22.7033 30.3531C23.0679 30.9 23.2502 31.2646 23.0679 30.5354C22.8856 29.6239 22.7033 28.1655 22.3387 26.7071C22.1564 25.6133 21.9741 25.431 21.7918 24.7018C21.6095 23.7903 21.4272 23.2434 21.2449 22.3319C21.0626 21.785 20.8803 20.3266 20.698 19.5974C20.5157 18.6859 20.5157 17.0452 21.2449 16.316C21.7918 15.7691 22.8856 15.5868 23.6148 15.9514C24.5263 16.4983 25.0732 17.7744 25.2555 18.3213C25.6201 19.2328 25.9847 20.5089 26.167 21.9673C26.5316 23.7903 27.0785 26.5248 27.0785 27.0717C27.0785 26.3425 26.8962 25.0664 27.0785 24.3372C27.2608 23.7903 27.6254 23.0611 28.3546 22.8788C28.9015 22.6965 29.4484 22.6965 29.9953 22.6965C30.5422 22.8788 31.0891 23.2434 31.4537 23.608C32.1829 24.7018 32.1829 27.0717 32.1829 26.8894C32.3652 26.1602 32.3652 24.7018 32.7298 23.9726C32.9121 23.608 33.6413 23.2434 34.0059 23.0611C34.5528 22.8788 35.282 22.8788 35.8289 23.0611C36.1935 23.0611 36.9227 23.608 37.105 23.9726C37.4696 24.5195 37.6519 26.3425 37.8342 27.0717C37.8342 27.254 38.0165 26.3425 38.3811 25.7956C39.1103 24.7018 41.6625 24.3372 41.8448 26.8894C41.8448 28.1655 41.8448 27.9832 41.8448 28.8947C41.8448 29.8062 41.8448 30.3531 41.8448 31.0823C41.8448 31.8115 41.6625 33.4522 41.4802 34.1814C41.2979 34.7283 40.751 36.0044 40.2041 36.7336C40.2041 36.7336 38.1988 38.9212 38.0165 40.015C37.8342 41.1088 37.8342 41.1088 37.8342 41.838C37.8342 42.5672 38.0165 43.4787 38.0165 43.4787C38.0165 43.4787 36.5581 43.661 35.8289 43.4787C35.0997 43.2964 34.1882 42.0203 34.0059 41.4734C33.6413 40.9265 33.0944 40.9265 32.7298 41.4734C32.3652 42.2026 31.4537 43.4787 30.7245 43.4787C29.4484 43.661 26.8962 43.4787 25.0732 43.4787C25.0732 43.4787 25.4378 41.6557 24.7086 40.9265C24.1617 40.3796 23.2502 39.4681 22.7033 38.9212L20.698 37.6451Z" stroke="black" stroke-width="1.36725" stroke-linecap="round" stroke-linejoin="round"/>
<path d="M35.8288 38.1921V31.9939" stroke="black" stroke-width="1.36725" stroke-linecap="round"/>
<path d="M32.1829 38.1921L32.0005 31.9939" stroke="black" stroke-width="1.36725" stroke-linecap="round"/>
<path d="M28.5368 31.9939V38.1921" stroke="black" stroke-width="1.36725" stroke-linecap="round"/>
</svg>
