<svg width="26" height="27" viewBox="0 0 26 27" fill="none" xmlns="http://www.w3.org/2000/svg">
<path d="M13.0418 21.0502L20.5117 13.5804L23.713 16.7817L16.2432 24.2516L13.0418 21.0502Z" stroke="#768699" stroke-width="2.13424" stroke-linecap="round" stroke-linejoin="round"/>
<path d="M19.4446 14.6475L17.8439 6.64408L2.37061 2.90915L6.10553 18.3824L14.1089 19.9831L19.4446 14.6475Z" fill="#768699" stroke="#768699" stroke-width="2.13424" stroke-linecap="round" stroke-linejoin="round"/>
<path d="M2.37061 2.90915L10.4658 11.0043L2.37061 2.90915Z" fill="white"/>
<path d="M2.37061 2.90915L10.4658 11.0043" stroke="white" stroke-width="2.13424" stroke-linecap="round" stroke-linejoin="round"/>
<path d="M11.9747 14.6475C13.1534 14.6475 14.1089 13.692 14.1089 12.5132C14.1089 11.3345 13.1534 10.379 11.9747 10.379C10.796 10.379 9.84045 11.3345 9.84045 12.5132C9.84045 13.692 10.796 14.6475 11.9747 14.6475Z" fill="#768699" stroke="white" stroke-width="2.13424" stroke-linecap="round" stroke-linejoin="round"/>
</svg>
