<svg width="35" height="35" viewBox="0 0 35 35" fill="none" xmlns="http://www.w3.org/2000/svg">
<path d="M31.5423 3.53059C31.2658 3.2509 30.9364 3.02902 30.5733 2.87787C30.2102 2.72673 29.8207 2.64934 29.4274 2.65021H21.2285C20.6907 2.65122 20.175 2.86427 19.7933 3.24313L3.40294 19.6301C2.84366 20.1905 2.52956 20.95 2.52956 21.7417C2.52956 22.5334 2.84366 23.2928 3.40294 23.8533L11.2063 31.6566C11.7668 32.2161 12.5265 32.5304 13.3185 32.5304C14.1105 32.5304 14.8702 32.2161 15.4307 31.6566L31.8144 15.2763C32.194 14.8952 32.4078 14.3796 32.4093 13.8417V5.63816C32.4117 5.24692 32.3363 4.85911 32.1875 4.49729C32.0386 4.13547 31.8193 3.80686 31.5423 3.53059ZM26.0066 11.1872C25.5845 11.1872 25.1718 11.062 24.8209 10.8275C24.4699 10.593 24.1963 10.2597 24.0348 9.86969C23.8733 9.47971 23.831 9.05058 23.9133 8.63658C23.9957 8.22257 24.199 7.84229 24.4974 7.54381C24.7959 7.24533 25.1762 7.04206 25.5902 6.95971C26.0042 6.87736 26.4333 6.91963 26.8233 7.08116C27.2133 7.2427 27.5466 7.51625 27.7811 7.86723C28.0157 8.2182 28.1408 8.63083 28.1408 9.05295C28.1408 9.61898 27.916 10.1618 27.5157 10.5621C27.1155 10.9623 26.5726 11.1872 26.0066 11.1872Z" fill="white"/>
</svg>
