<svg width="26" height="26" viewBox="0 0 26 26" fill="none" xmlns="http://www.w3.org/2000/svg">
<path d="M22.5285 20.8608L18.0835 16.4158C19.1536 14.9911 19.7313 13.257 19.7294 11.4752C19.7294 6.92384 16.0265 3.22098 11.4752 3.22098C6.92387 3.22098 3.22101 6.92384 3.22101 11.4752C3.22101 16.0265 6.92387 19.7294 11.4752 19.7294C13.257 19.7313 14.9911 19.1536 16.4158 18.0834L20.8608 22.5285C21.0859 22.7296 21.3793 22.837 21.681 22.8285C21.9827 22.8201 22.2697 22.6965 22.4831 22.4831C22.6965 22.2697 22.8201 21.9827 22.8286 21.681C22.837 21.3793 22.7296 21.0858 22.5285 20.8608ZM5.57935 11.4752C5.57935 10.3091 5.92513 9.16918 6.57298 8.19961C7.22082 7.23004 8.14163 6.47436 9.21895 6.02811C10.2963 5.58187 11.4817 5.46511 12.6254 5.69261C13.7691 5.9201 14.8196 6.48162 15.6442 7.30617C16.4687 8.13072 17.0303 9.18126 17.2578 10.3249C17.4853 11.4686 17.3685 12.6541 16.9223 13.7314C16.476 14.8087 15.7203 15.7295 14.7508 16.3774C13.7812 17.0252 12.6413 17.371 11.4752 17.371C9.9121 17.3691 8.41355 16.7474 7.30827 15.6421C6.20299 14.5368 5.58122 13.0383 5.57935 11.4752Z" fill="#768699"/>
</svg>
