<svg width="35" height="35" viewBox="0 0 35 35" fill="none" xmlns="http://www.w3.org/2000/svg">
<path d="M30.065 6.9187H22.6251V3.71733C22.6251 3.43431 22.5127 3.16288 22.3126 2.96276C22.1124 2.76264 21.841 2.65021 21.558 2.65021H13.021C12.738 2.65021 12.4666 2.76264 12.2664 2.96276C12.0663 3.16288 11.9539 3.43431 11.9539 3.71733V6.9187H4.51405L4.48404 9.5865H6.68498L8.02488 30.5288C8.0588 31.0703 8.29772 31.5787 8.69307 31.9503C9.08842 32.322 9.6105 32.5292 10.1531 32.5296H24.4259C24.9682 32.5296 25.4902 32.323 25.8857 31.952C26.2812 31.581 26.5207 31.0733 26.5555 30.5321L27.894 9.5865H30.095L30.065 6.9187ZM11.9539 28.2611L11.3536 11.1872H13.5546L14.1548 28.2611H11.9539ZM18.3566 28.2611H16.2224V11.1872H18.3566V28.2611ZM19.9573 6.9187H14.6217V5.05123C14.6217 4.98048 14.6498 4.91262 14.6998 4.86259C14.7499 4.81256 14.8177 4.78445 14.8885 4.78445H19.6905C19.7613 4.78445 19.8291 4.81256 19.8792 4.86259C19.9292 4.91262 19.9573 4.98048 19.9573 5.05123V6.9187ZM22.6251 28.2611H20.4242L21.0244 11.1872H23.2254L22.6251 28.2611Z" fill="#FF7E7E"/>
</svg>
